<mxfile host="app.diagrams.net" modified="2021-09-16T00:39:53.261Z" agent="5.0 (Windows NT 10.0; Win64; x64) AppleWebKit/537.36 (KHTML, like Gecko) Chrome/93.0.4577.82 Safari/537.36" etag="8qxgYhaWh9s_5Y43TywR" version="15.2.7" type="github">
  <diagram id="uPkjr97kw-Jy4TMHlNCn" name="Page-1">
    <mxGraphModel dx="941" dy="567" grid="1" gridSize="10" guides="1" tooltips="1" connect="1" arrows="1" fold="1" page="1" pageScale="1" pageWidth="827" pageHeight="1169" math="0" shadow="0">
      <root>
        <mxCell id="0" />
        <mxCell id="1" parent="0" />
        <mxCell id="GOB0xI6PQIK5q01dJwb0-2" style="edgeStyle=orthogonalEdgeStyle;rounded=0;orthogonalLoop=1;jettySize=auto;html=1;entryX=0.5;entryY=0;entryDx=0;entryDy=0;" edge="1" parent="1" source="GOB0xI6PQIK5q01dJwb0-1" target="GOB0xI6PQIK5q01dJwb0-6">
          <mxGeometry relative="1" as="geometry">
            <mxPoint x="431" y="250" as="targetPoint" />
            <Array as="points" />
          </mxGeometry>
        </mxCell>
        <mxCell id="GOB0xI6PQIK5q01dJwb0-1" value="leap year" style="ellipse;whiteSpace=wrap;html=1;" vertex="1" parent="1">
          <mxGeometry x="371" y="90" width="120" height="80" as="geometry" />
        </mxCell>
        <mxCell id="GOB0xI6PQIK5q01dJwb0-7" value="YES" style="edgeStyle=orthogonalEdgeStyle;rounded=0;orthogonalLoop=1;jettySize=auto;html=1;" edge="1" parent="1" source="GOB0xI6PQIK5q01dJwb0-6">
          <mxGeometry relative="1" as="geometry">
            <mxPoint x="700" y="470" as="targetPoint" />
          </mxGeometry>
        </mxCell>
        <mxCell id="GOB0xI6PQIK5q01dJwb0-8" style="edgeStyle=orthogonalEdgeStyle;rounded=0;orthogonalLoop=1;jettySize=auto;html=1;" edge="1" parent="1" source="GOB0xI6PQIK5q01dJwb0-6">
          <mxGeometry relative="1" as="geometry">
            <mxPoint x="180" y="450" as="targetPoint" />
          </mxGeometry>
        </mxCell>
        <mxCell id="GOB0xI6PQIK5q01dJwb0-6" value="&lt;span style=&quot;color: rgb(0 , 0 , 0) ; font-family: &amp;#34;helvetica&amp;#34; ; font-size: 12px ; font-style: normal ; font-weight: 400 ; letter-spacing: normal ; text-align: center ; text-indent: 0px ; text-transform: none ; word-spacing: 0px ; background-color: rgb(255 , 255 , 255) ; display: inline ; float: none&quot;&gt;if leap % 4 == 0&lt;/span&gt;" style="rhombus;whiteSpace=wrap;html=1;" vertex="1" parent="1">
          <mxGeometry x="356" y="260" width="150" height="150" as="geometry" />
        </mxCell>
        <mxCell id="GOB0xI6PQIK5q01dJwb0-9" value="not a leap" style="rounded=0;whiteSpace=wrap;html=1;" vertex="1" parent="1">
          <mxGeometry x="120" y="450" width="120" height="60" as="geometry" />
        </mxCell>
        <mxCell id="GOB0xI6PQIK5q01dJwb0-12" value="NO" style="edgeStyle=orthogonalEdgeStyle;rounded=0;orthogonalLoop=1;jettySize=auto;html=1;" edge="1" parent="1" source="GOB0xI6PQIK5q01dJwb0-11">
          <mxGeometry x="-1" y="-210" relative="1" as="geometry">
            <mxPoint x="390" y="710" as="targetPoint" />
            <mxPoint x="210" y="200" as="offset" />
          </mxGeometry>
        </mxCell>
        <mxCell id="GOB0xI6PQIK5q01dJwb0-13" value="YES" style="edgeStyle=orthogonalEdgeStyle;rounded=0;orthogonalLoop=1;jettySize=auto;html=1;" edge="1" parent="1" source="GOB0xI6PQIK5q01dJwb0-11">
          <mxGeometry x="-1" y="320" relative="1" as="geometry">
            <mxPoint x="901" y="710" as="targetPoint" />
            <mxPoint x="-320" y="310" as="offset" />
          </mxGeometry>
        </mxCell>
        <mxCell id="GOB0xI6PQIK5q01dJwb0-11" value="if leap % 100 == 0" style="rhombus;whiteSpace=wrap;html=1;" vertex="1" parent="1">
          <mxGeometry x="640" y="470" width="120" height="120" as="geometry" />
        </mxCell>
        <mxCell id="GOB0xI6PQIK5q01dJwb0-14" value="not a leap" style="rounded=0;whiteSpace=wrap;html=1;" vertex="1" parent="1">
          <mxGeometry x="840" y="720" width="120" height="60" as="geometry" />
        </mxCell>
        <mxCell id="GOB0xI6PQIK5q01dJwb0-16" value="YES" style="edgeStyle=orthogonalEdgeStyle;rounded=0;orthogonalLoop=1;jettySize=auto;html=1;" edge="1" parent="1" source="GOB0xI6PQIK5q01dJwb0-15">
          <mxGeometry relative="1" as="geometry">
            <mxPoint x="600" y="900" as="targetPoint" />
          </mxGeometry>
        </mxCell>
        <mxCell id="GOB0xI6PQIK5q01dJwb0-18" style="edgeStyle=orthogonalEdgeStyle;rounded=0;orthogonalLoop=1;jettySize=auto;html=1;" edge="1" parent="1" source="GOB0xI6PQIK5q01dJwb0-15">
          <mxGeometry relative="1" as="geometry">
            <mxPoint x="200" y="890" as="targetPoint" />
          </mxGeometry>
        </mxCell>
        <mxCell id="GOB0xI6PQIK5q01dJwb0-15" value="if leap % 400 == 0" style="rhombus;whiteSpace=wrap;html=1;" vertex="1" parent="1">
          <mxGeometry x="330" y="710" width="120" height="120" as="geometry" />
        </mxCell>
        <mxCell id="GOB0xI6PQIK5q01dJwb0-17" value="leap year" style="rounded=0;whiteSpace=wrap;html=1;" vertex="1" parent="1">
          <mxGeometry x="540" y="910" width="120" height="60" as="geometry" />
        </mxCell>
        <mxCell id="GOB0xI6PQIK5q01dJwb0-19" value="Not Leap" style="rounded=0;whiteSpace=wrap;html=1;" vertex="1" parent="1">
          <mxGeometry x="150" y="900" width="120" height="60" as="geometry" />
        </mxCell>
      </root>
    </mxGraphModel>
  </diagram>
</mxfile>
